<svg width="32" height="32" viewBox="0 0 32 32" fill="none" xmlns="http://www.w3.org/2000/svg">
<g clip-path="url(#clip0_17054_2318)">
<path d="M12 16C13.5823 16 15.129 15.5308 16.4446 14.6518C17.7602 13.7727 18.7855 12.5233 19.391 11.0615C19.9965 9.59966 20.155 7.99113 19.8463 6.43928C19.5376 4.88743 18.7757 3.46197 17.6569 2.34315C16.538 1.22433 15.1126 0.462403 13.5607 0.153721C12.0089 -0.15496 10.4003 0.00346629 8.93853 0.608967C7.47672 1.21447 6.22729 2.23985 5.34824 3.55544C4.46919 4.87104 4 6.41775 4 8C4.00212 10.1211 4.84565 12.1547 6.34549 13.6545C7.84532 15.1544 9.87892 15.9979 12 16ZM12 2.66667C13.0548 2.66667 14.086 2.97947 14.963 3.5655C15.8401 4.15153 16.5237 4.98449 16.9274 5.95903C17.331 6.93357 17.4366 8.00592 17.2309 9.04049C17.0251 10.0751 16.5171 11.0254 15.7712 11.7712C15.0254 12.5171 14.075 13.0251 13.0405 13.2309C12.0059 13.4366 10.9336 13.331 9.95902 12.9274C8.98448 12.5237 8.15153 11.8401 7.5655 10.963C6.97946 10.086 6.66667 9.05484 6.66667 8C6.66667 6.58552 7.22857 5.22896 8.22876 4.22877C9.22896 3.22857 10.5855 2.66667 12 2.66667ZM24 30.6667C24 31.0203 23.8595 31.3594 23.6095 31.6095C23.3594 31.8595 23.0203 32 22.6667 32C22.313 32 21.9739 31.8595 21.7239 31.6095C21.4738 31.3594 21.3333 31.0203 21.3333 30.6667C21.3333 28.1913 20.35 25.8173 18.5997 24.067C16.8493 22.3167 14.4754 21.3333 12 21.3333C9.52465 21.3333 7.15068 22.3167 5.40034 24.067C3.65 25.8173 2.66667 28.1913 2.66667 30.6667C2.66667 31.0203 2.52619 31.3594 2.27614 31.6095C2.02609 31.8595 1.68696 32 1.33333 32C0.979711 32 0.640573 31.8595 0.390524 31.6095C0.140476 31.3594 0 31.0203 0 30.6667C0 27.4841 1.26428 24.4318 3.51472 22.1814C5.76516 19.931 8.8174 18.6667 12 18.6667C15.1826 18.6667 18.2348 19.931 20.4853 22.1814C22.7357 24.4318 24 27.4841 24 30.6667ZM31.6093 19.0573C31.7367 19.1803 31.8383 19.3275 31.9081 19.4901C31.978 19.6528 32.0148 19.8278 32.0163 20.0048C32.0179 20.1818 31.9841 20.3574 31.9171 20.5213C31.8501 20.6851 31.7511 20.834 31.6259 20.9592C31.5007 21.0844 31.3518 21.1834 31.1879 21.2504C31.0241 21.3175 30.8485 21.3512 30.6715 21.3497C30.4944 21.3481 30.3195 21.3114 30.1568 21.2415C29.9941 21.1716 29.847 21.07 29.724 20.9427L27.3333 18.552L24.9427 20.9427C24.6912 21.1855 24.3544 21.3199 24.0048 21.3169C23.6552 21.3139 23.3208 21.1736 23.0736 20.9264C22.8264 20.6792 22.6861 20.3448 22.6831 19.9952C22.6801 19.6456 22.8145 19.3088 23.0573 19.0573L25.448 16.6667L23.0573 14.276C22.8145 14.0245 22.6801 13.6877 22.6831 13.3381C22.6861 12.9885 22.8264 12.6541 23.0736 12.4069C23.3208 12.1597 23.6552 12.0195 24.0048 12.0164C24.3544 12.0134 24.6912 12.1478 24.9427 12.3907L27.3333 14.7813L29.724 12.3907C29.9755 12.1478 30.3123 12.0134 30.6619 12.0164C31.0115 12.0195 31.3459 12.1597 31.5931 12.4069C31.8403 12.6541 31.9805 12.9885 31.9836 13.3381C31.9866 13.6877 31.8522 14.0245 31.6093 14.276L29.2187 16.6667L31.6093 19.0573Z" fill="#EF4444"/>
</g>
<defs>
<clipPath id="clip0_17054_2318">
<rect width="32" height="32" fill="white"/>
</clipPath>
</defs>
</svg>
