<svg width="27" height="32" viewBox="0 0 27 32" fill="none" xmlns="http://www.w3.org/2000/svg">
<path d="M22.6667 11.232V9.33333C22.6667 6.85798 21.6833 4.48401 19.933 2.73367C18.1827 0.983331 15.8087 0 13.3333 0C10.858 0 8.48401 0.983331 6.73367 2.73367C4.98333 4.48401 4 6.85798 4 9.33333V11.232C2.81248 11.7503 1.80172 12.6034 1.09133 13.6869C0.380941 14.7705 0.0017045 16.0376 0 17.3333V25.3333C0.00211714 27.1008 0.705176 28.7953 1.95496 30.045C3.20474 31.2948 4.89921 31.9979 6.66667 32H20C21.7675 31.9979 23.4619 31.2948 24.7117 30.045C25.9615 28.7953 26.6646 27.1008 26.6667 25.3333V17.3333C26.665 16.0376 26.2857 14.7705 25.5753 13.6869C24.8649 12.6034 23.8542 11.7503 22.6667 11.232ZM6.66667 9.33333C6.66667 7.56522 7.36905 5.86953 8.61929 4.61929C9.86953 3.36905 11.5652 2.66667 13.3333 2.66667C15.1014 2.66667 16.7971 3.36905 18.0474 4.61929C19.2976 5.86953 20 7.56522 20 9.33333V10.6667H6.66667V9.33333ZM24 25.3333C24 26.3942 23.5786 27.4116 22.8284 28.1618C22.0783 28.9119 21.0609 29.3333 20 29.3333H6.66667C5.6058 29.3333 4.58839 28.9119 3.83824 28.1618C3.08809 27.4116 2.66667 26.3942 2.66667 25.3333V17.3333C2.66667 16.2725 3.08809 15.2551 3.83824 14.5049C4.58839 13.7548 5.6058 13.3333 6.66667 13.3333H20C21.0609 13.3333 22.0783 13.7548 22.8284 14.5049C23.5786 15.2551 24 16.2725 24 17.3333V25.3333Z" fill="#2563EB"/>
<path d="M13.3333 18.667C12.9797 18.667 12.6406 18.8075 12.3905 19.0575C12.1405 19.3076 12 19.6467 12 20.0003V22.667C12 23.0206 12.1405 23.3598 12.3905 23.6098C12.6406 23.8599 12.9797 24.0003 13.3333 24.0003C13.687 24.0003 14.0261 23.8599 14.2761 23.6098C14.5262 23.3598 14.6667 23.0206 14.6667 22.667V20.0003C14.6667 19.6467 14.5262 19.3076 14.2761 19.0575C14.0261 18.8075 13.687 18.667 13.3333 18.667Z" fill="#2563EB"/>
</svg>
