<svg id="Layer_1" data-name="Layer 1" xmlns="http://www.w3.org/2000/svg" viewBox="0 0 399.99 282.8"><title>NRMA Insurance logo - Brandlogos.net</title><path d="M252,494.9h5.6v30H252Z" transform="translate(-184 -242.6)" style="fill:#000e82"/><path d="M286.6,516.6,274,494.9h-6.7v30h5.1v-23l13.5,23h5.8v-30h-5.1Z" transform="translate(-184 -242.6)" style="fill:#000e82"/><path d="M322.5,516.1c0-6-3.7-8-10.7-9-5.2-.8-6.2-2-6.2-4.4s1.8-4,5.2-4,5.2,1.3,5.8,4.5h5.1c-.6-5.8-4.5-8.7-10.9-8.7s-10.5,3.7-10.5,8.6c0,5.6,3.4,7.8,10.6,8.8,4.9.8,6.3,1.8,6.3,4.6s-2.3,4.6-5.7,4.6c-5.1,0-6.3-2.5-6.7-5.5h-5.4c.4,5.7,3.9,9.8,12,9.8,6.7,0,11.1-4.1,11.1-9.3Z" transform="translate(-184 -242.6)" style="fill:#000e82"/><path d="M354.4,513.2V494.9h-5.6v17.8c0,6.2-2.2,8.2-6.5,8.2s-6.2-2.3-6.2-7.8V494.9h-5.6v18.6c0,7.7,4.3,11.8,11.8,11.8C350.2,525.4,354.4,521,354.4,513.2Z" transform="translate(-184 -242.6)" style="fill:#000e82"/><path d="M378.4,512c3.7-1,6.7-3.4,6.7-8.1v-.2c0-6.1-4.6-8.8-11.2-8.8H363.8v30h5.6V512.8H373l7.8,12.1h6Zm-9-3.2v-9.5h4.5c3.6,0,5.7,1.2,5.7,4.6v.2c0,3.2-2,4.8-5.7,4.8Z" transform="translate(-184 -242.6)" style="fill:#000e82"/><path d="M402.8,494.9l-10,30H398l2.3-7.4h11.5l2.4,7.4H420l-9.9-30Zm-1.1,18.5,4.5-14,4.4,14Z" transform="translate(-184 -242.6)" style="fill:#000e82"/><path d="M446.7,516.6,434,494.9h-6.6v30h5v-23l13.6,23h5.8v-30h-5.1Z" transform="translate(-184 -242.6)" style="fill:#000e82"/><path d="M474.8,520.8c-5.5,0-8.8-4-8.8-10.8v-.3c0-6.7,3.5-10.8,8.7-10.8,4.3,0,6.5,2.1,7.2,6h5.7c-.7-7.1-6-10.5-12.9-10.5-8.4,0-14.6,6.3-14.6,15.3v.3c0,9.2,5.2,15.2,14.7,15.2,7.1,0,12.3-3.7,13.2-10.9h-5.4c-.7,4.4-3.7,6.5-7.8,6.5Z" transform="translate(-184 -242.6)" style="fill:#000e82"/><path d="M502.1,520.5v-8.7h10.5v-4.2H502.1v-8.3h13.1v-4.4H496.5v30H516v-4.4Z" transform="translate(-184 -242.6)" style="fill:#000e82"/><path d="M441.6,261.9c7.2,0,13.7-2.2,13.7-5.1,0-.9-1.3-.5-1.9-.3-2.3.6-7.9,2.2-13.8.9-.6,1.2-1.8,2.6-5.3,3.4A25.3,25.3,0,0,0,441.6,261.9Z" transform="translate(-184 -242.6)" style="fill:#000e82"/><path d="M472.5,308.1c-2.1-2-4.2-3.9-6.4-5.7H431.3c2.2,1.8,4.4,3.7,6.4,5.7Z" transform="translate(-184 -242.6)" style="fill:#000e82"/><path d="M337.5,270a16.94,16.94,0,0,1-7,1.5,55.55,55.55,0,0,1-8.1-.8c-.5,0-.6.2-.6.5,0,1.4,4,4.5,11.4,4.5,3.8,0,7.1-.8,9.6-2.6-1.9-.4-4.3-1.6-5.3-3.1Z" transform="translate(-184 -242.6)" style="fill:#000e82"/><path d="M457.2,262.1c10.1,0,18.5-4.9,18.5-7.8a.77.77,0,0,0-.7-.8h-.3c-2.3.5-6.4,3.7-16.9,3.7-.3,2.2-1.7,3.5-5.2,4.6A36.71,36.71,0,0,0,457.2,262.1Z" transform="translate(-184 -242.6)" style="fill:#000e82"/><path d="M460.5,298.3a77.79,77.79,0,0,0-9.2-5.6H415.2a78.75,78.75,0,0,1,10.3,5.6Z" transform="translate(-184 -242.6)" style="fill:#000e82"/><path d="M355.1,253.3a8.43,8.43,0,0,1,8.4,8.3v.1c0,3.2-1.8,5.7-4.5,7.5.3.4.7.7,1,1.1.5.6,1,1.1,1.5,1.6a17.14,17.14,0,0,0,2.5,2.2l.6.5a26.06,26.06,0,0,0,2.8,1.7c.4.2.9.4,1.3.6a6.61,6.61,0,0,0,1.5.5,16.45,16.45,0,0,0,3.2.5c.3,0,.5.1.8.1v5.2c0,4.1,4.1,6.3,8.9,6.3s8.9-2.2,8.9-6.3v-5.3a2.2,2.2,0,0,0,.8-.1c1.1-.1,2.1-.3,3.2-.5a8.8,8.8,0,0,0,1.5-.5c.5-.2.9-.4,1.3-.6a16.09,16.09,0,0,0,2.8-1.7l.6-.5a26.22,26.22,0,0,0,2.5-2.2c.5-.5,1-1,1.5-1.6.3-.4.7-.7,1-1.1-2.6-1.8-4.5-4.3-4.5-7.5a8.22,8.22,0,0,1,8.2-8.4h.1a11.64,11.64,0,0,1,6.2,2.2c.7-1,1.3-2,2-3a14.81,14.81,0,0,0-8.1-2.7A11.93,11.93,0,0,0,399,261.4v.2a12.76,12.76,0,0,0,3.3,8.1c-2.2,2.2-5.5,5.2-10.5,5.1V248.9c0-4.1-4.1-6.3-8.9-6.3s-8.9,2.2-8.9,6.3v25.9c-5,.1-8.3-2.9-10.5-5.1a12.24,12.24,0,0,0,3.3-8.1,11.86,11.86,0,0,0-11.9-11.9h-.2a14.81,14.81,0,0,0-8.1,2.7c.7,1,1.3,2,2,3a15,15,0,0,1,6.5-2.1Zm28-7.9a7.51,7.51,0,0,1,5.2,1.6l-5.2,5-5.2-5A7.51,7.51,0,0,1,383.1,245.4Zm-6.2,3.8,6.2,5.9,6.2-6v4.3l-6.2,6-6.2-6Zm0,7.4,6.2,6,6.2-6v4.3l-6.2,6-6.2-6Zm0,7.4,6.2,6,6.2-6v4.3l-6.2,6-6.2-6Zm0,7.4,6.2,6,6.2-6v4.3l-6.2,6-6.2-6Zm0,7.4,6.2,6,6.2-6V283c0,2.4-2.5,3.8-6.2,3.8s-6.2-1.5-6.2-3.8Z" transform="translate(-184 -242.6)" style="fill:#000e82"/><path d="M419.2,257.1a17.41,17.41,0,0,0,9.2,2.2c3.9,0,8.8-1.1,8.8-2.8,0-.8-1.4-.6-4.1-.5a23.17,23.17,0,0,1-11.6-2.2,31.41,31.41,0,0,0-2.3,3.3h0Z" transform="translate(-184 -242.6)" style="fill:#000e82"/><path d="M355.3,268.5c-.8-1-1.6-2.1-2.7-3.5-3,1.9-5.7,3-11.6,2.8-1.1,0-1.6,0-1.6.6,0,.9,3.3,2.9,7.4,2.9a15.41,15.41,0,0,0,8.5-2.8Z" transform="translate(-184 -242.6)" style="fill:#000e82"/><path d="M406.1,261.8a5.82,5.82,0,0,0,3,4.9c.6-.9,1.4-1.8,2.2-2.9-1.6-.9-2.3-2.3-1.3-3.4s2.2-.7,3.6.4c.6-.9,1.3-1.8,2-2.8a6.37,6.37,0,0,0-4-1.5,5.17,5.17,0,0,0-5.4,5A.37.37,0,0,0,406.1,261.8Z" transform="translate(-184 -242.6)" style="fill:#000e82"/><path d="M454.7,281.4c0-.5-.5-.9-1.6-.7a24.53,24.53,0,0,1-11.7-1c-1.1,2-3,3.1-5.5,3.8a24.55,24.55,0,0,0,8.5,1.5c6.2,0,10.3-2.2,10.3-3.6Z" transform="translate(-184 -242.6)" style="fill:#000e82"/><path d="M425.2,267.7c-5.9.3-8.6-.9-11.6-2.8a44,44,0,0,1-2.7,3.5,15.15,15.15,0,0,0,8.5,2.8c4.1,0,7.4-2,7.4-2.9,0-.6-.5-.6-1.6-.6Z" transform="translate(-184 -242.6)" style="fill:#000e82"/><path d="M428.5,282.3c6.4,0,9.8-2.5,9.8-3.6,0-.5-.3-.6-.8-.6-.8,0-3.6.3-5.5.3a20.16,20.16,0,0,1-9-2.1c-1.7,1.9-3.1,2.3-5.5,2.7A20.54,20.54,0,0,0,428.5,282.3Z" transform="translate(-184 -242.6)" style="fill:#000e82"/><path d="M432.9,275.7c7.4,0,11.4-3.1,11.4-4.5,0-.3-.2-.5-.6-.5a55.55,55.55,0,0,1-8.1.8,16.94,16.94,0,0,1-7-1.5c-1,1.5-3.4,2.6-5.3,3.1,2.5,1.9,5.9,2.6,9.6,2.6Z" transform="translate(-184 -242.6)" style="fill:#000e82"/><path d="M400.1,278.5a21.3,21.3,0,0,1-3.5,1.4c1.6,3.2,4,5.4,7.4,5.8,1.9.2,3.6-.6,3.6-1.4,0-.5-1.5-.7-2.4-1.1A10.61,10.61,0,0,1,400.1,278.5Z" transform="translate(-184 -242.6)" style="fill:#000e82"/><path d="M446.3,318h35.1a66.83,66.83,0,0,0-4.9-5.7H441.7c1.6,1.8,3.1,3.7,4.6,5.7Z" transform="translate(-184 -242.6)" style="fill:#000e82"/><path d="M414.1,279.8c0-.5-1-.5-1.8-.6a10.5,10.5,0,0,1-7.2-4,20.14,20.14,0,0,1-2.9,2.2,10.26,10.26,0,0,0,6.3,4.5c3.3.6,5.6-1.2,5.6-2.1Z" transform="translate(-184 -242.6)" style="fill:#000e82"/><path d="M463.3,273.1a.77.77,0,0,0-.7-.8h-.1c-1.9,0-3.6,1.4-9.5,1.4a25.09,25.09,0,0,1-6.1-1c-.8,2.2-3.2,3.6-5.6,4.3a31.33,31.33,0,0,0,8.6,1.2c8,0,13.4-3.2,13.4-5.1Z" transform="translate(-184 -242.6)" style="fill:#000e82"/><path d="M430.2,261.5c-5.3.3-8.5-.3-12.5-2.4-.8,1.2-1.7,2.4-2.5,3.5a15.66,15.66,0,0,0,9.1,2.7c4.1,0,8-1.7,8-3C432.5,261.7,431.6,261.4,430.2,261.5Z" transform="translate(-184 -242.6)" style="fill:#000e82"/><path d="M319.3,272.7a25.9,25.9,0,0,1-6.1,1c-6,0-7.7-1.4-9.5-1.4a.77.77,0,0,0-.8.7v.1c0,1.9,5.4,5.1,13.4,5.1a31.33,31.33,0,0,0,8.6-1.2c-2.4-.7-4.8-2.1-5.6-4.3Z" transform="translate(-184 -242.6)" style="fill:#000e82"/><path d="M414.8,276.9c3.8,0,6.5-1.7,6.5-2.6,0-.6-.6-.6-1.5-.5a16,16,0,0,1-10.6-2.9l-.3.4c-.7.8-1.4,1.6-2.1,2.3a12.19,12.19,0,0,0,8,3.3Z" transform="translate(-184 -242.6)" style="fill:#000e82"/><path d="M430.2,285.1c0-.6-1.7-.3-4.2-.5a19.26,19.26,0,0,1-9.8-3.4,5.75,5.75,0,0,1-4.6,2.7,22.93,22.93,0,0,0,11.6,3.6C427.6,287.6,430.2,286.1,430.2,285.1Z" transform="translate(-184 -242.6)" style="fill:#000e82"/><path d="M448.9,263.5a48.23,48.23,0,0,1-8.5,1.1,22.55,22.55,0,0,1-5.8-.8c-.8,1.4-2.8,2.7-5.9,3.3a18.79,18.79,0,0,0,8.1,1.8c6.8,0,13.2-2.2,13.2-4.6C450,263.8,449.8,263.4,448.9,263.5Z" transform="translate(-184 -242.6)" style="fill:#000e82"/><path d="M470.7,263.5c0-.5-.2-.9-1.1-.7a32.38,32.38,0,0,1-16.6,2.3c-.3,2-2.9,4-6.4,4.7a46.16,46.16,0,0,0,7.4.6C463.2,270.4,470.7,266.5,470.7,263.5Z" transform="translate(-184 -242.6)" style="fill:#000e82"/><path d="M319.2,411H284.1c1,2,2,4,3.2,5.9h35.6C321.6,415,320.3,413,319.2,411Z" transform="translate(-184 -242.6)" style="fill:#000e82"/><path d="M337.7,433.8H300.8a75.6,75.6,0,0,0,6.8,5.9h37.6A72.13,72.13,0,0,1,337.7,433.8Z" transform="translate(-184 -242.6)" style="fill:#000e82"/><path d="M355.2,460.9a150.11,150.11,0,0,0,55.9,0,118.42,118.42,0,0,0,16.5-4.5H338.7a118.42,118.42,0,0,0,16.5,4.5Z" transform="translate(-184 -242.6)" style="fill:#000e82"/><path d="M354.1,445.1H315.2a108.33,108.33,0,0,0,10.5,5.9H370a59.67,59.67,0,0,1-15.9-5.9Z" transform="translate(-184 -242.6)" style="fill:#000e82"/><path d="M327,422.4H290.9c1.5,2,3,4,4.7,5.9h36.5A71.92,71.92,0,0,1,327,422.4Z" transform="translate(-184 -242.6)" style="fill:#000e82"/><path d="M321.7,285a24.55,24.55,0,0,0,8.5-1.5c-2.5-.7-4.4-1.7-5.5-3.8a24.42,24.42,0,0,1-11.7,1c-1.1-.2-1.6.2-1.6.7C311.5,282.8,315.5,285,321.7,285Z" transform="translate(-184 -242.6)" style="fill:#000e82"/><path d="M324.5,312.3H289.7c-1.7,1.8-3.3,3.7-4.9,5.7h35.1C321.4,316,322.9,314.1,324.5,312.3Z" transform="translate(-184 -242.6)" style="fill:#000e82"/><path d="M268.3,325.3H257.9c-2.5,0-3.3.8-3.3,3.2v41l-36.5-42.3a4.75,4.75,0,0,0-4.4-1.9H187.3c-2.3,0-3.3,1.1-3.3,3.2v72.2c0,2.1,1.1,3.2,3.3,3.2h10.5c2.3,0,3.2-1.1,3.2-3.2V354.1l40.7,47.4c1.4,1.6,2.1,2.4,5.2,2.4h21.5c2.5,0,3.2-.8,3.2-3.2V328.5c-.1-2.4-.7-3.2-3.3-3.2Z" transform="translate(-184 -242.6)" style="fill:#000e82"/><path d="M396.3,451.1h44.3a108.33,108.33,0,0,0,10.5-5.9H412.2a70.85,70.85,0,0,1-15.9,5.9Z" transform="translate(-184 -242.6)" style="fill:#000e82"/><path d="M443.3,416.9h35.6c1.2-1.9,2.2-3.9,3.2-5.9H447C445.9,413,444.6,415,443.3,416.9Z" transform="translate(-184 -242.6)" style="fill:#000e82"/><path d="M308.9,262.1c1.5,0,3.1-.1,4.6-.2-3.5-1.1-4.9-2.4-5.2-4.6-10.5,0-14.6-3.3-16.9-3.7a.72.72,0,0,0-.9.5v.3C290.5,257.1,298.9,262.1,308.9,262.1Z" transform="translate(-184 -242.6)" style="fill:#000e82"/><path d="M556.3,327.8a3.3,3.3,0,0,0-3.6-2.5H521c-2,0-3.3.6-3.9,2.5l-26.5,73.3c-.6,1.9-.1,2.8,1.8,2.8h11.8c2,0,2.8-.2,3.6-2.4l5-13.9h31.3l4.7,12.4c1.3,3.4,2.2,3.9,5,3.9H581c2.9,0,3.6-.9,2.5-4Zm-38.4,46L528.3,345l10.8,28.8Z" transform="translate(-184 -242.6)" style="fill:#000e82"/><path d="M483.7,325.3H450.6c-3,0-3.6,1.1-4.6,3.3l-15.7,38.2-16.2-38.2c-1-2.4-1.9-3.3-5-3.3H378c-2.5,0-3.3.8-3.3,3.2v72.2c0,2.4.8,3.2,3.3,3.2h10.4c2.5,0,3.3-.8,3.3-3.2V354.1l20,46.5c1.4,2.9,1.9,3.3,4.1,3.3h14c2.9,0,3.6-.6,4.7-3.1l19-46.5v46.5c0,2.4.8,3.2,3.3,3.2h27.1c2.5,0,3-.8,3-3.2V328.5c0-2.4-.7-3.2-3.2-3.2Z" transform="translate(-184 -242.6)" style="fill:#000e82"/><path d="M434.1,428.3h36.5c1.7-1.9,3.2-3.9,4.7-5.9H439.2A71.92,71.92,0,0,1,434.1,428.3Z" transform="translate(-184 -242.6)" style="fill:#000e82"/><path d="M421.1,439.7h37.6c2.4-1.9,4.6-3.8,6.8-5.9H428.6A84.51,84.51,0,0,1,421.1,439.7Z" transform="translate(-184 -242.6)" style="fill:#000e82"/><path d="M313.3,400.7V366.2l22,34.9c1.5,2.3,2.2,2.8,4.7,2.8h28.2c2.4,0,3-1.8,1.7-3.9l-20.8-32.4c11.3-3.1,20-8.8,20-22,0-12.4-8.8-20.3-21.4-20.3H283.2c-2.5,0-3.3.8-3.3,3.2v72.2c0,2.4.8,3.2,3.3,3.2h27C312.5,403.8,313.3,403,313.3,400.7Zm0-65.7h10.5c7.5,0,12.4,4.1,12.4,12.9s-4.9,12.7-12.4,12.7H313.3Z" transform="translate(-184 -242.6)" style="fill:#000e82"/><path d="M335.9,261.5c-1.4-.1-2.2.2-2.2.8,0,1.3,4,3,8,3a14.59,14.59,0,0,0,9.1-2.7c-.8-1.1-1.6-2.3-2.5-3.5-3.8,2.1-7,2.7-12.4,2.4Z" transform="translate(-184 -242.6)" style="fill:#000e82"/><path d="M331.5,263.8a22.55,22.55,0,0,1-5.8.8,48.23,48.23,0,0,1-8.5-1.1c-.9-.1-1.1.3-1.1.8,0,2.4,6.4,4.6,13.2,4.6a19.12,19.12,0,0,0,8.1-1.8C334.3,266.5,332.3,265.2,331.5,263.8Z" transform="translate(-184 -242.6)" style="fill:#000e82"/><path d="M354.6,256.5a7,7,0,0,0-4,1.5c.7,1,1.3,1.9,2,2.8,1.3-1.1,2.7-1.5,3.6-.4s.2,2.5-1.3,3.4c.8,1.1,1.5,2.1,2.2,2.9a6,6,0,0,0,3-4.9,5.1,5.1,0,0,0-5.1-5.3Z" transform="translate(-184 -242.6)" style="fill:#000e82"/><path d="M359.5,273.5c-.7-.7-1.4-1.5-2.1-2.3l-.3-.4a15.46,15.46,0,0,1-10.6,2.9c-.9-.1-1.6-.1-1.5.5,0,1,2.7,2.6,6.5,2.6,3,.1,5.5-1.2,8-3.3Z" transform="translate(-184 -242.6)" style="fill:#000e82"/><path d="M324.6,261.9a22.35,22.35,0,0,0,7.3-1.2c-3.6-.8-4.8-2.2-5.3-3.4-5.9,1.3-11.5-.3-13.8-.9-.6-.2-1.9-.6-1.9.3C310.9,259.7,317.4,261.9,324.6,261.9Z" transform="translate(-184 -242.6)" style="fill:#000e82"/><path d="M348.6,279c-2.4-.4-3.8-.8-5.5-2.7a20.16,20.16,0,0,1-9,2.1c-1.9.1-4.7-.3-5.5-.3-.5,0-.8.1-.8.6,0,1.1,3.3,3.6,9.8,3.6A20.54,20.54,0,0,0,348.6,279Z" transform="translate(-184 -242.6)" style="fill:#000e82"/><path d="M313.2,265.1a32.53,32.53,0,0,1-16.6-2.3c-.9-.2-1.1.2-1.1.7,0,3,7.5,6.9,16.6,6.9a45.24,45.24,0,0,0,7.4-.6C316.1,269,313.5,267.1,313.2,265.1Z" transform="translate(-184 -242.6)" style="fill:#000e82"/><path d="M362.2,285.6c3.4-.4,5.7-2.6,7.4-5.8a15.06,15.06,0,0,1-3.5-1.4A10,10,0,0,1,361,283c-.9.5-2.4.7-2.4,1.1C358.5,285,360.3,285.8,362.2,285.6Z" transform="translate(-184 -242.6)" style="fill:#000e82"/><path d="M337.8,259.2A16.52,16.52,0,0,0,347,257c-.8-1.1-1.5-2.3-2.3-3.4a21.2,21.2,0,0,1-11.6,2.2c-2.7-.1-4.1-.2-4.1.5,0,1.8,4.9,2.9,8.8,2.9Z" transform="translate(-184 -242.6)" style="fill:#000e82"/><path d="M357.6,281.9a11.09,11.09,0,0,0,6.3-4.5,31.55,31.55,0,0,1-2.9-2.2,10,10,0,0,1-7.2,4c-.8.1-1.8.1-1.8.6,0,.9,2.4,2.7,5.6,2.1Z" transform="translate(-184 -242.6)" style="fill:#000e82"/><path d="M328.5,308.1c2-2,4.2-3.9,6.4-5.7H300.2c-2.2,1.8-4.3,3.7-6.4,5.7Z" transform="translate(-184 -242.6)" style="fill:#000e82"/><path d="M350,281.3a20.23,20.23,0,0,1-9.8,3.4c-2.5.2-4.2-.1-4.2.5,0,1,2.6,2.4,7.1,2.4a22.93,22.93,0,0,0,11.6-3.6,5.78,5.78,0,0,1-4.7-2.7Z" transform="translate(-184 -242.6)" style="fill:#000e82"/><path d="M350.9,292.6H314.8a107.4,107.4,0,0,0-9.2,5.6h35A85.77,85.77,0,0,1,350.9,292.6Z" transform="translate(-184 -242.6)" style="fill:#000e82"/></svg>