<svg width="130" height="120" viewBox="0 0 130 120" fill="none" xmlns="http://www.w3.org/2000/svg">
<path d="M82.795 0H68.1235V119.253H82.795C108.864 119.254 130 92.5567 130 59.6268C130 26.697 108.864 0 82.795 0Z" fill="url(#paint0_linear_15033_1618)"/>
<path d="M82.795 0H68.1235V119.253H82.795C108.864 119.254 130 92.5567 130 59.6268C130 26.697 108.864 0 82.795 0Z" fill="url(#paint1_linear_15033_1618)"/>
<path d="M68.1233 119.254H82.7948C108.864 119.254 130 92.5567 130 59.6268C130 56.7112 129.831 53.8456 129.511 51.042H68.1233V119.254Z" fill="url(#paint2_linear_15033_1618)"/>
<path d="M68.1233 119.253C94.1936 119.253 115.328 92.5575 115.328 59.6268C115.328 26.6961 94.1936 0.000488281 68.1233 0.000488281C42.053 0.000488281 20.9188 26.6961 20.9188 59.6268C20.9188 92.5575 42.053 119.253 68.1233 119.253Z" fill="url(#paint3_linear_15033_1618)"/>
<path d="M68.6258 57.1572H20.9622C20.9345 57.9801 20.92 58.8034 20.9188 59.6267C20.9188 92.5576 42.053 119.253 68.1233 119.253C83.7855 119.253 97.6635 109.615 106.25 94.7818L68.6258 57.1572Z" fill="url(#paint4_linear_15033_1618)"/>
<path d="M20.9188 59.6268C20.9188 92.5577 42.053 119.253 68.1233 119.253C94.1936 119.253 115.328 92.5577 115.328 59.6268C115.328 58.4342 115.297 57.2508 115.242 56.0754H21.0046C20.9498 57.2508 20.9188 58.4342 20.9188 59.6268Z" fill="url(#paint5_linear_15033_1618)"/>
<path d="M57.9536 56.0754H21.0046C20.95 57.2508 20.9191 58.4342 20.9191 59.6268C20.9191 88.1468 36.7722 111.986 57.9536 117.861V56.0754Z" fill="url(#paint6_linear_15033_1618)"/>
<path d="M68.1233 0.000488281C65.509 0.00150062 62.9018 0.27319 60.3434 0.811211V118.443C62.9018 118.981 65.509 119.252 68.1233 119.253C94.1937 119.253 115.328 92.5577 115.328 59.6271C115.328 26.6964 94.1937 0.000488281 68.1233 0.000488281Z" fill="url(#paint7_linear_15033_1618)"/>
<path d="M68.1233 10.6438C46.7078 10.6438 29.3455 32.5757 29.3455 59.6269C29.3455 86.6781 46.7078 108.61 68.1233 108.61C89.5388 108.61 106.901 86.6781 106.901 59.6269C106.901 32.5757 89.539 10.6438 68.1233 10.6438ZM68.1233 98.815C50.9897 98.815 37.0998 81.2683 37.0998 59.6269C37.0998 37.9854 50.9897 20.4387 68.1233 20.4387C85.2569 20.4387 99.1468 37.9852 99.1468 59.6269C99.1468 81.2686 85.2569 98.815 68.1233 98.815Z" fill="url(#paint8_linear_15033_1618)"/>
<path d="M68.1233 31.0654C55.6346 31.0654 45.5132 43.8527 45.5132 59.6268C45.5132 75.401 55.6346 88.1882 68.1233 88.1882C80.6119 88.1882 90.7336 75.401 90.7336 59.6268C90.7336 43.8527 80.6119 31.0654 68.1233 31.0654ZM68.1233 76.7409C60.6396 76.7409 54.5738 69.0785 54.5738 59.6268C54.5738 50.1752 60.6394 42.5128 68.1233 42.5128C75.6072 42.5128 81.6727 50.1752 81.6727 59.6268C81.6727 69.0785 75.6072 76.7409 68.1233 76.7409Z" fill="url(#paint9_linear_15033_1618)"/>
<path d="M79.7951 68.3256C77.4363 73.3631 73.092 76.74 68.123 76.74C60.6404 76.74 54.5746 69.0771 54.5746 59.6268C54.5746 58.7863 54.6229 57.9611 54.7143 57.1562H45.599C45.5406 57.9713 45.5127 58.7939 45.5127 59.6268C45.5127 75.402 55.6359 88.1887 68.123 88.1887C75.9738 88.1887 82.8877 83.1385 86.9375 75.468L79.7951 68.3256Z" fill="url(#paint10_linear_15033_1618)"/>
<path d="M93.5492 82.0822C87.9404 92.2004 78.6424 98.8146 68.1231 98.8146C50.9895 98.8146 37.1008 81.2672 37.1008 59.6268C37.1008 58.7965 37.1211 57.9738 37.1617 57.1562H29.3947C29.3617 57.9738 29.3465 58.799 29.3465 59.6268C29.3465 86.6779 46.7086 108.61 68.1231 108.61C81.1078 108.61 92.5996 100.549 99.6404 88.1734L93.5492 82.0822Z" fill="url(#paint11_linear_15033_1618)"/>
<path d="M46.6088 59.627H14.0885L0.430856 40.165C-0.66348 38.6061 0.453708 36.458 2.358 36.458H3.76972C5.14843 36.458 6.44082 37.1283 7.23047 38.2582L10.3713 42.732L9.14492 38.4309C8.86308 37.4432 9.60449 36.458 10.6328 36.458H16.2472C16.5163 36.458 16.7756 36.5591 16.9736 36.7414L17.7828 37.4856C17.9529 37.6421 18.1691 37.7395 18.399 37.7632C18.629 37.787 18.8604 37.7358 19.0589 37.6173C19.2193 37.5218 19.4018 37.4696 19.5885 37.4661C19.7751 37.4626 19.9595 37.5078 20.1233 37.5973L21.3901 38.2894C21.632 38.4217 21.9109 38.4704 22.1834 38.4278C22.4559 38.3852 22.7066 38.2538 22.8967 38.0541C23.9459 36.9516 25.516 36.5217 26.9844 36.9216C29.9347 37.7248 32.5109 39.5351 34.2664 42.0386L46.6088 59.627Z" fill="url(#paint12_linear_15033_1618)"/>
<path d="M14.0885 59.6268H46.6088L36.9545 45.8696H4.4342L14.0885 59.6268Z" fill="url(#paint13_linear_15033_1618)"/>
<path d="M34.2664 42.0389C32.5109 39.5354 29.9347 37.7252 26.9844 36.9219C25.5161 36.522 23.9459 36.9519 22.8968 38.0543C22.7067 38.2541 22.4559 38.3855 22.1834 38.4281C21.911 38.4706 21.6321 38.422 21.3901 38.2897L20.1234 37.5975C19.9596 37.508 19.7752 37.4627 19.5885 37.4661C19.4019 37.4696 19.2193 37.5217 19.059 37.6173C18.8604 37.7357 18.629 37.7868 18.3991 37.7631C18.1691 37.7393 17.953 37.642 17.7829 37.4856L16.9736 36.7414C16.7756 36.5591 16.5163 36.458 16.2472 36.458H10.6328C9.60453 36.458 8.86312 37.4432 9.14496 38.4309L10.3462 42.6439L22.2638 59.627H46.6086L34.2664 42.0389Z" fill="url(#paint14_linear_15033_1618)"/>
<path d="M34.2664 42.0389C32.5109 39.5354 29.9347 37.7252 26.9844 36.9219C25.5161 36.522 23.9459 36.9519 22.8968 38.0543C22.7067 38.2541 22.4559 38.3855 22.1834 38.4281C21.911 38.4706 21.6321 38.422 21.3901 38.2897L20.1234 37.5975C19.9596 37.508 19.7752 37.4627 19.5885 37.4661C19.4019 37.4696 19.2193 37.5217 19.059 37.6173C18.8604 37.7357 18.629 37.7868 18.3991 37.7631C18.1691 37.7393 17.953 37.642 17.7828 37.4856L16.9736 36.7414C16.7756 36.5591 16.5163 36.458 16.2472 36.458H10.6328C10.2807 36.4572 9.93906 36.5778 9.66547 36.7995C9.88865 36.8226 10.1116 36.8617 10.3322 36.9219C13.2825 37.7251 15.8587 39.5354 17.6143 42.0389L29.9566 59.627H46.6088L34.2664 42.0389Z" fill="url(#paint15_linear_15033_1618)"/>
<path d="M34.2664 42.0387C32.5108 39.5353 29.9346 37.725 26.9844 36.9217C25.5161 36.5218 23.9459 36.9517 22.8968 38.0542C22.7067 38.2539 22.4559 38.3853 22.1834 38.4279C21.9109 38.4705 21.632 38.4218 21.3901 38.2895L20.1233 37.5974C19.9595 37.5078 19.7752 37.4625 19.5885 37.466C19.4019 37.4694 19.2193 37.5216 19.059 37.6172C18.9275 37.6951 18.7809 37.744 18.629 37.7605C18.477 37.7771 18.3233 37.7609 18.1782 37.7132C20.2377 38.6837 22.0085 40.1746 23.3157 42.0387L35.6581 59.6268H46.6088L34.2664 42.0387Z" fill="url(#paint16_linear_15033_1618)"/>
<path d="M34.2664 42.0387C32.5108 39.5353 29.9346 37.725 26.9844 36.9217C25.5161 36.5218 23.9459 36.9517 22.8968 38.0542C22.7067 38.2539 22.4559 38.3853 22.1834 38.4279C21.9109 38.4705 21.632 38.4218 21.3901 38.2895L20.1233 37.5974C19.9595 37.5078 19.7752 37.4625 19.5885 37.466C19.4019 37.4694 19.2193 37.5216 19.059 37.6172C18.9275 37.6951 18.7809 37.744 18.629 37.7605C18.477 37.7771 18.3233 37.7609 18.1782 37.7132C20.2377 38.6837 22.0085 40.1746 23.3157 42.0387L35.6581 59.6268H46.6088L34.2664 42.0387Z" fill="url(#paint17_linear_15033_1618)"/>
<path d="M46.6088 59.627H14.0885L0.430856 79.0889C-0.66348 80.6479 0.453708 82.7959 2.358 82.7959H3.76972C5.14843 82.7959 6.44082 82.1256 7.23047 80.9957L10.3713 76.5219L9.14492 80.823C8.86308 81.8107 9.60449 82.7959 10.6328 82.7959H16.2472C16.5163 82.7959 16.7756 82.6948 16.9736 82.5125L17.7828 81.7683C17.9529 81.6118 18.1691 81.5144 18.399 81.4907C18.629 81.4669 18.8604 81.5181 19.0589 81.6366C19.2193 81.7321 19.4018 81.7843 19.5885 81.7878C19.7751 81.7913 19.9595 81.7461 20.1233 81.6566L21.3901 80.9645C21.632 80.8322 21.9109 80.7835 22.1834 80.8261C22.4559 80.8687 22.7066 81.0001 22.8967 81.1998C23.9459 82.3023 25.516 82.7322 26.9844 82.3323C29.9347 81.5291 32.5109 79.7188 34.2664 77.2153L46.6088 59.627Z" fill="url(#paint18_linear_15033_1618)"/>
<path d="M6.46773 70.4858L0.430856 79.0887C-0.66348 80.6477 0.453708 82.7957 2.358 82.7957H3.76972C5.14843 82.7957 6.44082 82.1254 7.23047 80.9955L10.3713 76.5217L9.14492 80.8229C8.86308 81.8106 9.60449 82.7957 10.6328 82.7957H16.2472C16.5163 82.7957 16.7756 82.6947 16.9736 82.5124L17.7828 81.7682C17.9529 81.6116 18.1691 81.5142 18.399 81.4905C18.629 81.4667 18.8604 81.5179 19.0589 81.6364C19.2193 81.732 19.4018 81.7841 19.5885 81.7876C19.7751 81.7911 19.9595 81.7459 20.1233 81.6564L21.3901 80.9643C21.632 80.832 21.9109 80.7834 22.1834 80.8259C22.4559 80.8685 22.7066 80.9999 22.8967 81.1997C23.9459 82.3021 25.516 82.732 26.9844 82.3321C29.9347 81.5289 32.5109 79.7186 34.2664 77.2151L38.9883 70.4861H6.46773V70.4858Z" fill="url(#paint19_linear_15033_1618)"/>
<path d="M34.2664 77.215C32.5109 79.7185 29.9347 81.5287 26.9844 82.332C25.5161 82.7319 23.9459 82.3021 22.8968 81.1996C22.7067 80.9998 22.4559 80.8684 22.1834 80.8259C21.911 80.7833 21.6321 80.8319 21.3901 80.9642L20.1234 81.6564C19.9596 81.7459 19.7752 81.7912 19.5885 81.7878C19.4019 81.7843 19.2193 81.7322 19.059 81.6366C18.8604 81.5182 18.629 81.4671 18.3991 81.4909C18.1691 81.5146 17.953 81.6119 17.7829 81.7683L16.9736 82.5125C16.7756 82.6948 16.5163 82.7959 16.2472 82.7959H10.6328C9.60453 82.7959 8.86312 81.8107 9.14496 80.823L10.3462 76.61L22.2638 59.627H46.6086L34.2664 77.215Z" fill="url(#paint20_linear_15033_1618)"/>
<path d="M34.2664 77.215C32.5109 79.7185 29.9347 81.5287 26.9844 82.332C25.5161 82.7319 23.9459 82.3021 22.8968 81.1996C22.7067 80.9998 22.4559 80.8684 22.1834 80.8259C21.911 80.7833 21.6321 80.8319 21.3901 80.9642L20.1234 81.6564C19.9596 81.7459 19.7752 81.7912 19.5885 81.7878C19.4019 81.7843 19.2193 81.7322 19.059 81.6366C18.8604 81.5182 18.629 81.4671 18.3991 81.4909C18.1691 81.5146 17.953 81.6119 17.7828 81.7683L16.9736 82.5125C16.7756 82.6948 16.5163 82.7959 16.2472 82.7959H10.6328C10.2807 82.7967 9.93906 82.6761 9.66547 82.4544C9.89068 82.4318 10.1137 82.3909 10.3322 82.332C13.2825 81.5288 15.8587 79.7185 17.6143 77.215L29.9566 59.627H46.6088L34.2664 77.215Z" fill="url(#paint21_linear_15033_1618)"/>
<path d="M34.2664 77.215C32.5108 79.7185 29.9346 81.5287 26.9844 82.332C25.5161 82.7319 23.9459 82.3021 22.8968 81.1996C22.7067 80.9998 22.4559 80.8684 22.1834 80.8259C21.9109 80.7833 21.632 80.8319 21.3901 80.9642L20.1233 81.6564C19.9595 81.7459 19.7752 81.7912 19.5885 81.7878C19.4019 81.7843 19.2193 81.7322 19.059 81.6366C18.9275 81.5586 18.7809 81.5098 18.629 81.4932C18.477 81.4766 18.3233 81.4928 18.1782 81.5406C20.2377 80.5701 22.0085 79.0791 23.3157 77.215L35.6581 59.627H46.6088L34.2664 77.215Z" fill="url(#paint22_linear_15033_1618)"/>
<path d="M34.2664 77.215C32.5108 79.7185 29.9346 81.5287 26.9844 82.332C25.5161 82.7319 23.9459 82.3021 22.8968 81.1996C22.7067 80.9998 22.4559 80.8684 22.1834 80.8259C21.9109 80.7833 21.632 80.8319 21.3901 80.9642L20.1233 81.6564C19.9595 81.7459 19.7752 81.7912 19.5885 81.7878C19.4019 81.7843 19.2193 81.7322 19.059 81.6366C18.9275 81.5586 18.7809 81.5098 18.629 81.4932C18.477 81.4766 18.3233 81.4928 18.1782 81.5406C20.2377 80.5701 22.0085 79.0791 23.3157 77.215L35.6581 59.627H46.6088L34.2664 77.215Z" fill="url(#paint23_linear_15033_1618)"/>
<path d="M69.6066 59.6269V59.6634C69.6051 61.6056 68.0301 63.179 66.088 63.179H3.55215C1.59047 63.179 0 61.5888 0 59.6269C0 57.6652 1.59047 56.0747 3.55215 56.0747H66.0882C68.0304 56.0747 69.6051 57.6482 69.6069 59.5903L69.6066 59.6269Z" fill="url(#paint24_linear_15033_1618)"/>
<defs>
<linearGradient id="paint0_linear_15033_1618" x1="99.0618" y1="4.73611" x2="99.0618" y2="120.945" gradientUnits="userSpaceOnUse">
<stop stop-color="#FFA1AE"/>
<stop offset="1" stop-color="#FF4565"/>
</linearGradient>
<linearGradient id="paint1_linear_15033_1618" x1="98.8901" y1="68.1319" x2="127.544" y2="80.6683" gradientUnits="userSpaceOnUse">
<stop stop-color="#FE0364" stop-opacity="0"/>
<stop offset="0.234" stop-color="#F90362" stop-opacity="0.234"/>
<stop offset="0.517" stop-color="#EA035B" stop-opacity="0.517"/>
<stop offset="0.824" stop-color="#D20250" stop-opacity="0.824"/>
<stop offset="1" stop-color="#C00148"/>
</linearGradient>
<linearGradient id="paint2_linear_15033_1618" x1="99.0618" y1="62.9405" x2="99.0618" y2="115.664" gradientUnits="userSpaceOnUse">
<stop stop-color="#FE0364" stop-opacity="0"/>
<stop offset="0.234" stop-color="#F90362" stop-opacity="0.234"/>
<stop offset="0.517" stop-color="#EA035B" stop-opacity="0.517"/>
<stop offset="0.824" stop-color="#D20250" stop-opacity="0.824"/>
<stop offset="1" stop-color="#C00148"/>
</linearGradient>
<linearGradient id="paint3_linear_15033_1618" x1="34.0118" y1="40.0034" x2="108.036" y2="82.5873" gradientUnits="userSpaceOnUse">
<stop stop-color="#FFA1AE"/>
<stop offset="1" stop-color="#FF4565"/>
</linearGradient>
<linearGradient id="paint4_linear_15033_1618" x1="63.4926" y1="82.365" x2="56.6145" y2="59.3776" gradientUnits="userSpaceOnUse">
<stop stop-color="#FE0364" stop-opacity="0"/>
<stop offset="0.234" stop-color="#F90362" stop-opacity="0.234"/>
<stop offset="0.517" stop-color="#EA035B" stop-opacity="0.517"/>
<stop offset="0.824" stop-color="#D20250" stop-opacity="0.824"/>
<stop offset="1" stop-color="#C00148"/>
</linearGradient>
<linearGradient id="paint5_linear_15033_1618" x1="68.1233" y1="89.5058" x2="68.1233" y2="123.614" gradientUnits="userSpaceOnUse">
<stop stop-color="#FE0364" stop-opacity="0"/>
<stop offset="0.234" stop-color="#F90362" stop-opacity="0.234"/>
<stop offset="0.517" stop-color="#EA035B" stop-opacity="0.517"/>
<stop offset="0.824" stop-color="#D20250" stop-opacity="0.824"/>
<stop offset="1" stop-color="#C00148"/>
</linearGradient>
<linearGradient id="paint6_linear_15033_1618" x1="44.2878" y1="77.4868" x2="36.8065" y2="70.6088" gradientUnits="userSpaceOnUse">
<stop stop-color="#FE0364" stop-opacity="0"/>
<stop offset="0.234" stop-color="#F90362" stop-opacity="0.234"/>
<stop offset="0.517" stop-color="#EA035B" stop-opacity="0.517"/>
<stop offset="0.824" stop-color="#D20250" stop-opacity="0.824"/>
<stop offset="1" stop-color="#C00148"/>
</linearGradient>
<linearGradient id="paint7_linear_15033_1618" x1="85.2323" y1="70.9876" x2="110.006" y2="92.1801" gradientUnits="userSpaceOnUse">
<stop stop-color="#FE0364" stop-opacity="0"/>
<stop offset="0.234" stop-color="#F90362" stop-opacity="0.234"/>
<stop offset="0.517" stop-color="#EA035B" stop-opacity="0.517"/>
<stop offset="0.824" stop-color="#D20250" stop-opacity="0.824"/>
<stop offset="1" stop-color="#C00148"/>
</linearGradient>
<linearGradient id="paint8_linear_15033_1618" x1="40.1012" y1="43.5066" x2="100.911" y2="78.4886" gradientUnits="userSpaceOnUse">
<stop stop-color="#F5FBFF"/>
<stop offset="1" stop-color="#DBD5EF"/>
</linearGradient>
<linearGradient id="paint9_linear_15033_1618" x1="51.7839" y1="50.2272" x2="87.2414" y2="70.6248" gradientUnits="userSpaceOnUse">
<stop stop-color="#F5FBFF"/>
<stop offset="1" stop-color="#DBD5EF"/>
</linearGradient>
<linearGradient id="paint10_linear_15033_1618" x1="66.0677" y1="69.9087" x2="61.9651" y2="57.3591" gradientUnits="userSpaceOnUse">
<stop stop-color="#DBD5EF" stop-opacity="0"/>
<stop offset="0.285" stop-color="#D9D2EE" stop-opacity="0.285"/>
<stop offset="0.474" stop-color="#D4C9E9" stop-opacity="0.474"/>
<stop offset="0.635" stop-color="#CBBAE2" stop-opacity="0.635"/>
<stop offset="0.779" stop-color="#BFA5D7" stop-opacity="0.78"/>
<stop offset="0.913" stop-color="#AF8ACA" stop-opacity="0.913"/>
<stop offset="1" stop-color="#A274BF"/>
</linearGradient>
<linearGradient id="paint11_linear_15033_1618" x1="49.8421" y1="74.9297" x2="41.7574" y2="68.4134" gradientUnits="userSpaceOnUse">
<stop stop-color="#DBD5EF" stop-opacity="0"/>
<stop offset="0.285" stop-color="#D9D2EE" stop-opacity="0.285"/>
<stop offset="0.474" stop-color="#D4C9E9" stop-opacity="0.474"/>
<stop offset="0.635" stop-color="#CBBAE2" stop-opacity="0.635"/>
<stop offset="0.779" stop-color="#BFA5D7" stop-opacity="0.78"/>
<stop offset="0.913" stop-color="#AF8ACA" stop-opacity="0.913"/>
<stop offset="1" stop-color="#A274BF"/>
</linearGradient>
<linearGradient id="paint12_linear_15033_1618" x1="23.3043" y1="39.2781" x2="23.3043" y2="53.5555" gradientUnits="userSpaceOnUse">
<stop stop-color="#B3DAFE"/>
<stop offset="1" stop-color="#0182FC"/>
</linearGradient>
<linearGradient id="paint13_linear_15033_1618" x1="25.5214" y1="51.6617" x2="25.5214" y2="57.9992" gradientUnits="userSpaceOnUse">
<stop stop-color="#314DC9" stop-opacity="0"/>
<stop offset="0.276" stop-color="#304BC4" stop-opacity="0.276"/>
<stop offset="0.563" stop-color="#2B45B8" stop-opacity="0.563"/>
<stop offset="0.854" stop-color="#243BA3" stop-opacity="0.854"/>
<stop offset="1" stop-color="#1F3596"/>
</linearGradient>
<linearGradient id="paint14_linear_15033_1618" x1="24.2145" y1="51.8394" x2="18.151" y2="57.4505" gradientUnits="userSpaceOnUse">
<stop stop-color="#314DC9" stop-opacity="0"/>
<stop offset="0.276" stop-color="#304BC4" stop-opacity="0.276"/>
<stop offset="0.563" stop-color="#2B45B8" stop-opacity="0.563"/>
<stop offset="0.854" stop-color="#243BA3" stop-opacity="0.854"/>
<stop offset="1" stop-color="#1F3596"/>
</linearGradient>
<linearGradient id="paint15_linear_15033_1618" x1="27.4379" y1="49.1576" x2="22.2793" y2="56.1264" gradientUnits="userSpaceOnUse">
<stop stop-color="#314DC9" stop-opacity="0"/>
<stop offset="0.276" stop-color="#304BC4" stop-opacity="0.276"/>
<stop offset="0.563" stop-color="#2B45B8" stop-opacity="0.563"/>
<stop offset="0.854" stop-color="#243BA3" stop-opacity="0.854"/>
<stop offset="1" stop-color="#1F3596"/>
</linearGradient>
<linearGradient id="paint16_linear_15033_1618" x1="30.0021" y1="49.6315" x2="21.2235" y2="53.1611" gradientUnits="userSpaceOnUse">
<stop stop-color="#314DC9" stop-opacity="0"/>
<stop offset="0.276" stop-color="#304BC4" stop-opacity="0.276"/>
<stop offset="0.563" stop-color="#2B45B8" stop-opacity="0.563"/>
<stop offset="0.854" stop-color="#243BA3" stop-opacity="0.854"/>
<stop offset="1" stop-color="#1F3596"/>
</linearGradient>
<linearGradient id="paint17_linear_15033_1618" x1="33.0228" y1="48.3247" x2="37.6383" y2="45.7904" gradientUnits="userSpaceOnUse">
<stop stop-color="#314DC9" stop-opacity="0"/>
<stop offset="0.276" stop-color="#304BC4" stop-opacity="0.276"/>
<stop offset="0.563" stop-color="#2B45B8" stop-opacity="0.563"/>
<stop offset="0.854" stop-color="#243BA3" stop-opacity="0.854"/>
<stop offset="1" stop-color="#1F3596"/>
</linearGradient>
<linearGradient id="paint18_linear_15033_1618" x1="18.1886" y1="62.2754" x2="27.5102" y2="77.0271" gradientUnits="userSpaceOnUse">
<stop stop-color="#B3DAFE"/>
<stop offset="1" stop-color="#0182FC"/>
</linearGradient>
<linearGradient id="paint19_linear_15033_1618" x1="19.4941" y1="76.5496" x2="19.4941" y2="83.5468" gradientUnits="userSpaceOnUse">
<stop stop-color="#314DC9" stop-opacity="0"/>
<stop offset="0.276" stop-color="#304BC4" stop-opacity="0.276"/>
<stop offset="0.563" stop-color="#2B45B8" stop-opacity="0.563"/>
<stop offset="0.854" stop-color="#243BA3" stop-opacity="0.854"/>
<stop offset="1" stop-color="#1F3596"/>
</linearGradient>
<linearGradient id="paint20_linear_15033_1618" x1="24.2145" y1="67.4145" x2="18.151" y2="61.8034" gradientUnits="userSpaceOnUse">
<stop stop-color="#314DC9" stop-opacity="0"/>
<stop offset="0.276" stop-color="#304BC4" stop-opacity="0.276"/>
<stop offset="0.563" stop-color="#2B45B8" stop-opacity="0.563"/>
<stop offset="0.854" stop-color="#243BA3" stop-opacity="0.854"/>
<stop offset="1" stop-color="#1F3596"/>
</linearGradient>
<linearGradient id="paint21_linear_15033_1618" x1="27.4379" y1="70.0963" x2="22.2793" y2="63.1278" gradientUnits="userSpaceOnUse">
<stop stop-color="#314DC9" stop-opacity="0"/>
<stop offset="0.276" stop-color="#304BC4" stop-opacity="0.276"/>
<stop offset="0.563" stop-color="#2B45B8" stop-opacity="0.563"/>
<stop offset="0.854" stop-color="#243BA3" stop-opacity="0.854"/>
<stop offset="1" stop-color="#1F3596"/>
</linearGradient>
<linearGradient id="paint22_linear_15033_1618" x1="30.0021" y1="69.6222" x2="21.2235" y2="66.0927" gradientUnits="userSpaceOnUse">
<stop stop-color="#314DC9" stop-opacity="0"/>
<stop offset="0.276" stop-color="#304BC4" stop-opacity="0.276"/>
<stop offset="0.563" stop-color="#2B45B8" stop-opacity="0.563"/>
<stop offset="0.854" stop-color="#243BA3" stop-opacity="0.854"/>
<stop offset="1" stop-color="#1F3596"/>
</linearGradient>
<linearGradient id="paint23_linear_15033_1618" x1="33.0228" y1="70.9293" x2="37.6383" y2="73.4633" gradientUnits="userSpaceOnUse">
<stop stop-color="#314DC9" stop-opacity="0"/>
<stop offset="0.276" stop-color="#304BC4" stop-opacity="0.276"/>
<stop offset="0.563" stop-color="#2B45B8" stop-opacity="0.563"/>
<stop offset="0.854" stop-color="#243BA3" stop-opacity="0.854"/>
<stop offset="1" stop-color="#1F3596"/>
</linearGradient>
<linearGradient id="paint24_linear_15033_1618" x1="34.8034" y1="56.9395" x2="34.8034" y2="61.3174" gradientUnits="userSpaceOnUse">
<stop stop-color="#5A5A5A"/>
<stop offset="1" stop-color="#444444"/>
</linearGradient>
</defs>
</svg>
